<mxfile host="app.diagrams.net" modified="2023-04-30T21:56:06.278Z" agent="Mozilla/5.0 (Windows NT 10.0; Win64; x64; rv:109.0) Gecko/20100101 Firefox/112.0" etag="MR-3ri8_Zs6vtHd9QfOQ" version="21.2.3" type="device">
  <diagram name="Page-1" id="_M71y5wW2VvE9dCBn_is">
    <mxGraphModel dx="1562" dy="1982" grid="1" gridSize="10" guides="1" tooltips="1" connect="1" arrows="1" fold="1" page="1" pageScale="1" pageWidth="827" pageHeight="1169" background="none" math="0" shadow="0">
      <root>
        <mxCell id="0" />
        <mxCell id="1" parent="0" />
        <mxCell id="ZjGV_vbm2PJWPnYQoxDB-3" value="&lt;b&gt;Swing GUI Library&lt;/b&gt;" style="html=1;whiteSpace=wrap;fillColor=#f5f5f5;fontColor=#333333;strokeColor=#666666;" parent="1" vertex="1">
          <mxGeometry x="230" y="-50" width="110" height="50" as="geometry" />
        </mxCell>
        <mxCell id="ZjGV_vbm2PJWPnYQoxDB-9" value="" style="group" parent="1" vertex="1" connectable="0">
          <mxGeometry x="10" y="70" width="660" height="160" as="geometry" />
        </mxCell>
        <mxCell id="ZjGV_vbm2PJWPnYQoxDB-7" value="Start" style="shape=folder;fontStyle=1;spacingTop=10;tabWidth=40;tabHeight=14;tabPosition=left;html=1;whiteSpace=wrap;fillColor=none;verticalAlign=top;align=left;" parent="ZjGV_vbm2PJWPnYQoxDB-9" vertex="1">
          <mxGeometry width="660" height="160" as="geometry" />
        </mxCell>
        <mxCell id="QS9NOTjVPdq4bi2XpLZB-6" value="Main" style="swimlane;fontStyle=1;align=center;verticalAlign=top;childLayout=stackLayout;horizontal=1;startSize=30;horizontalStack=0;resizeParent=1;resizeParentMax=0;resizeLast=0;collapsible=1;marginBottom=0;whiteSpace=wrap;html=1;fillColor=#dae8fc;strokeColor=#6c8ebf;" parent="ZjGV_vbm2PJWPnYQoxDB-9" vertex="1">
          <mxGeometry x="10" y="40" width="220" height="98" as="geometry">
            <mxRectangle x="100" y="90" width="70" height="30" as="alternateBounds" />
          </mxGeometry>
        </mxCell>
        <mxCell id="QS9NOTjVPdq4bi2XpLZB-7" value="- NAME: String = &quot;Personal Informatics&quot;" style="text;strokeColor=none;fillColor=none;align=left;verticalAlign=top;spacingLeft=4;spacingRight=4;overflow=hidden;rotatable=0;points=[[0,0.5],[1,0.5]];portConstraint=eastwest;whiteSpace=wrap;html=1;" parent="QS9NOTjVPdq4bi2XpLZB-6" vertex="1">
          <mxGeometry y="30" width="220" height="30" as="geometry" />
        </mxCell>
        <mxCell id="QS9NOTjVPdq4bi2XpLZB-8" value="" style="line;strokeWidth=1;fillColor=none;align=left;verticalAlign=middle;spacingTop=-1;spacingLeft=3;spacingRight=3;rotatable=0;labelPosition=right;points=[];portConstraint=eastwest;strokeColor=inherit;" parent="QS9NOTjVPdq4bi2XpLZB-6" vertex="1">
          <mxGeometry y="60" width="220" height="8" as="geometry" />
        </mxCell>
        <mxCell id="QS9NOTjVPdq4bi2XpLZB-9" value="+ main(args): void" style="text;strokeColor=none;fillColor=none;align=left;verticalAlign=top;spacingLeft=4;spacingRight=4;overflow=hidden;rotatable=0;points=[[0,0.5],[1,0.5]];portConstraint=eastwest;whiteSpace=wrap;html=1;" parent="QS9NOTjVPdq4bi2XpLZB-6" vertex="1">
          <mxGeometry y="68" width="220" height="30" as="geometry" />
        </mxCell>
        <mxCell id="QS9NOTjVPdq4bi2XpLZB-11" value="MainFrame" style="swimlane;fontStyle=1;align=center;verticalAlign=top;childLayout=stackLayout;horizontal=1;startSize=26;horizontalStack=0;resizeParent=1;resizeParentMax=0;resizeLast=0;collapsible=1;marginBottom=0;whiteSpace=wrap;html=1;fillColor=#dae8fc;strokeColor=#6c8ebf;" parent="ZjGV_vbm2PJWPnYQoxDB-9" vertex="1">
          <mxGeometry x="240" y="30" width="200" height="120" as="geometry" />
        </mxCell>
        <mxCell id="QS9NOTjVPdq4bi2XpLZB-12" value="&lt;div&gt;- mainPage: MainPage&lt;/div&gt;&lt;div&gt;- startPage: StartPage&lt;br&gt;&lt;/div&gt;" style="text;strokeColor=none;fillColor=none;align=left;verticalAlign=top;spacingLeft=4;spacingRight=4;overflow=hidden;rotatable=0;points=[[0,0.5],[1,0.5]];portConstraint=eastwest;whiteSpace=wrap;html=1;" parent="QS9NOTjVPdq4bi2XpLZB-11" vertex="1">
          <mxGeometry y="26" width="200" height="34" as="geometry" />
        </mxCell>
        <mxCell id="QS9NOTjVPdq4bi2XpLZB-13" value="" style="line;strokeWidth=1;fillColor=none;align=left;verticalAlign=middle;spacingTop=-1;spacingLeft=3;spacingRight=3;rotatable=0;labelPosition=right;points=[];portConstraint=eastwest;strokeColor=inherit;" parent="QS9NOTjVPdq4bi2XpLZB-11" vertex="1">
          <mxGeometry y="60" width="200" height="8" as="geometry" />
        </mxCell>
        <mxCell id="QS9NOTjVPdq4bi2XpLZB-14" value="&lt;div&gt;+ MainFrame(): void&lt;/div&gt;&lt;div&gt;&lt;br&gt;&lt;/div&gt;&lt;div&gt;+ SwitchPanel(panel: JPanel): void&lt;br&gt;&lt;/div&gt;" style="text;strokeColor=none;fillColor=none;align=left;verticalAlign=top;spacingLeft=4;spacingRight=4;overflow=hidden;rotatable=0;points=[[0,0.5],[1,0.5]];portConstraint=eastwest;whiteSpace=wrap;html=1;" parent="QS9NOTjVPdq4bi2XpLZB-11" vertex="1">
          <mxGeometry y="68" width="200" height="52" as="geometry" />
        </mxCell>
        <mxCell id="QS9NOTjVPdq4bi2XpLZB-15" value="MainGUIPanel" style="swimlane;fontStyle=1;align=center;verticalAlign=top;childLayout=stackLayout;horizontal=1;startSize=26;horizontalStack=0;resizeParent=1;resizeParentMax=0;resizeLast=0;collapsible=1;marginBottom=0;whiteSpace=wrap;html=1;fillColor=#dae8fc;strokeColor=#6c8ebf;" parent="ZjGV_vbm2PJWPnYQoxDB-9" vertex="1">
          <mxGeometry x="450" y="30" width="200" height="120" as="geometry" />
        </mxCell>
        <mxCell id="QS9NOTjVPdq4bi2XpLZB-17" value="" style="line;strokeWidth=1;fillColor=none;align=left;verticalAlign=middle;spacingTop=-1;spacingLeft=3;spacingRight=3;rotatable=0;labelPosition=right;points=[];portConstraint=eastwest;strokeColor=inherit;" parent="QS9NOTjVPdq4bi2XpLZB-15" vertex="1">
          <mxGeometry y="26" width="200" height="8" as="geometry" />
        </mxCell>
        <mxCell id="QS9NOTjVPdq4bi2XpLZB-18" value="&lt;div&gt;+ MainGUIPanel(mainframe: MainFrame): void&lt;/div&gt;&lt;div&gt;&lt;br&gt;&lt;/div&gt;&lt;div&gt;+ SwitchPanel(formPanel: JPanel): void&lt;br&gt;&lt;/div&gt;" style="text;strokeColor=none;fillColor=none;align=left;verticalAlign=top;spacingLeft=4;spacingRight=4;overflow=hidden;rotatable=0;points=[[0,0.5],[1,0.5]];portConstraint=eastwest;whiteSpace=wrap;html=1;" parent="QS9NOTjVPdq4bi2XpLZB-15" vertex="1">
          <mxGeometry y="34" width="200" height="86" as="geometry" />
        </mxCell>
        <mxCell id="ZjGV_vbm2PJWPnYQoxDB-16" value="" style="group" parent="1" vertex="1" connectable="0">
          <mxGeometry x="76" y="870" width="250" height="320" as="geometry" />
        </mxCell>
        <mxCell id="ZjGV_vbm2PJWPnYQoxDB-14" value="NonGUIElements" style="shape=folder;fontStyle=1;spacingTop=10;tabWidth=40;tabHeight=14;tabPosition=left;html=1;whiteSpace=wrap;fillColor=none;align=left;verticalAlign=top;" parent="ZjGV_vbm2PJWPnYQoxDB-16" vertex="1">
          <mxGeometry width="640" height="320" as="geometry" />
        </mxCell>
        <mxCell id="QS9NOTjVPdq4bi2XpLZB-97" value="DataSet" style="swimlane;fontStyle=1;align=center;verticalAlign=top;childLayout=stackLayout;horizontal=1;startSize=26;horizontalStack=0;resizeParent=1;resizeParentMax=0;resizeLast=0;collapsible=1;marginBottom=0;whiteSpace=wrap;html=1;fillColor=#e1d5e7;strokeColor=#9673a6;" parent="ZjGV_vbm2PJWPnYQoxDB-16" vertex="1">
          <mxGeometry x="260" y="40" width="180" height="180" as="geometry" />
        </mxCell>
        <mxCell id="QS9NOTjVPdq4bi2XpLZB-98" value="&lt;div&gt;- dataPoints: DataPoint[]&lt;/div&gt;&lt;div&gt;- seriesName: String&lt;br&gt;&lt;/div&gt;" style="text;strokeColor=none;fillColor=none;align=left;verticalAlign=top;spacingLeft=4;spacingRight=4;overflow=hidden;rotatable=0;points=[[0,0.5],[1,0.5]];portConstraint=eastwest;whiteSpace=wrap;html=1;" parent="QS9NOTjVPdq4bi2XpLZB-97" vertex="1">
          <mxGeometry y="26" width="180" height="34" as="geometry" />
        </mxCell>
        <mxCell id="QS9NOTjVPdq4bi2XpLZB-99" value="" style="line;strokeWidth=1;fillColor=none;align=left;verticalAlign=middle;spacingTop=-1;spacingLeft=3;spacingRight=3;rotatable=0;labelPosition=right;points=[];portConstraint=eastwest;strokeColor=inherit;" parent="QS9NOTjVPdq4bi2XpLZB-97" vertex="1">
          <mxGeometry y="60" width="180" height="8" as="geometry" />
        </mxCell>
        <mxCell id="QS9NOTjVPdq4bi2XpLZB-100" value="&lt;div&gt;+ DataSet(dataPoints: DataPoint[], seriesName: String): void&lt;/div&gt;&lt;div&gt;&lt;br&gt;&lt;/div&gt;&lt;div&gt;+ getDataPoints(): DataPoint[]&lt;/div&gt;&lt;div&gt;&lt;br&gt;&lt;/div&gt;&lt;div&gt;+ getSeriesName(): String&lt;br&gt;&lt;/div&gt;" style="text;strokeColor=none;fillColor=none;align=left;verticalAlign=top;spacingLeft=4;spacingRight=4;overflow=hidden;rotatable=0;points=[[0,0.5],[1,0.5]];portConstraint=eastwest;whiteSpace=wrap;html=1;" parent="QS9NOTjVPdq4bi2XpLZB-97" vertex="1">
          <mxGeometry y="68" width="180" height="112" as="geometry" />
        </mxCell>
        <mxCell id="QS9NOTjVPdq4bi2XpLZB-101" value="DataPoint" style="swimlane;fontStyle=1;align=center;verticalAlign=top;childLayout=stackLayout;horizontal=1;startSize=26;horizontalStack=0;resizeParent=1;resizeParentMax=0;resizeLast=0;collapsible=1;marginBottom=0;whiteSpace=wrap;html=1;fillColor=#e1d5e7;strokeColor=#9673a6;" parent="ZjGV_vbm2PJWPnYQoxDB-16" vertex="1">
          <mxGeometry x="470" y="40" width="160" height="170" as="geometry" />
        </mxCell>
        <mxCell id="QS9NOTjVPdq4bi2XpLZB-102" value="&lt;div&gt;- date: Date&lt;/div&gt;&lt;div&gt;- value: double&lt;br&gt;&lt;/div&gt;" style="text;strokeColor=none;fillColor=none;align=left;verticalAlign=top;spacingLeft=4;spacingRight=4;overflow=hidden;rotatable=0;points=[[0,0.5],[1,0.5]];portConstraint=eastwest;whiteSpace=wrap;html=1;" parent="QS9NOTjVPdq4bi2XpLZB-101" vertex="1">
          <mxGeometry y="26" width="160" height="34" as="geometry" />
        </mxCell>
        <mxCell id="QS9NOTjVPdq4bi2XpLZB-103" value="" style="line;strokeWidth=1;fillColor=none;align=left;verticalAlign=middle;spacingTop=-1;spacingLeft=3;spacingRight=3;rotatable=0;labelPosition=right;points=[];portConstraint=eastwest;strokeColor=inherit;" parent="QS9NOTjVPdq4bi2XpLZB-101" vertex="1">
          <mxGeometry y="60" width="160" height="8" as="geometry" />
        </mxCell>
        <mxCell id="QS9NOTjVPdq4bi2XpLZB-104" value="&lt;div&gt;+ DataPoint(date: Date, value: double): void&lt;/div&gt;&lt;div&gt;&lt;br&gt;&lt;/div&gt;&lt;div&gt;+ getValue(): double&lt;/div&gt;&lt;div&gt;&lt;br&gt;&lt;/div&gt;&lt;div&gt;+ getDate(): Date&lt;br&gt;&lt;/div&gt;&lt;div&gt;&lt;br&gt;&lt;/div&gt;" style="text;strokeColor=none;fillColor=none;align=left;verticalAlign=top;spacingLeft=4;spacingRight=4;overflow=hidden;rotatable=0;points=[[0,0.5],[1,0.5]];portConstraint=eastwest;whiteSpace=wrap;html=1;" parent="QS9NOTjVPdq4bi2XpLZB-101" vertex="1">
          <mxGeometry y="68" width="160" height="102" as="geometry" />
        </mxCell>
        <mxCell id="QS9NOTjVPdq4bi2XpLZB-105" value="" style="endArrow=open;startArrow=circlePlus;endFill=0;startFill=0;endSize=8;html=1;rounded=0;" parent="ZjGV_vbm2PJWPnYQoxDB-16" source="QS9NOTjVPdq4bi2XpLZB-104" target="QS9NOTjVPdq4bi2XpLZB-100" edge="1">
          <mxGeometry width="160" relative="1" as="geometry">
            <mxPoint x="-230" y="510" as="sourcePoint" />
            <mxPoint x="-240" y="390" as="targetPoint" />
          </mxGeometry>
        </mxCell>
        <mxCell id="QS9NOTjVPdq4bi2XpLZB-106" value="Validation" style="swimlane;fontStyle=1;align=center;verticalAlign=top;childLayout=stackLayout;horizontal=1;startSize=26;horizontalStack=0;resizeParent=1;resizeParentMax=0;resizeLast=0;collapsible=1;marginBottom=0;whiteSpace=wrap;html=1;fillColor=#e1d5e7;strokeColor=#9673a6;" parent="ZjGV_vbm2PJWPnYQoxDB-16" vertex="1">
          <mxGeometry x="10" y="40" width="240" height="270" as="geometry" />
        </mxCell>
        <mxCell id="QS9NOTjVPdq4bi2XpLZB-108" value="" style="line;strokeWidth=1;fillColor=none;align=left;verticalAlign=middle;spacingTop=-1;spacingLeft=3;spacingRight=3;rotatable=0;labelPosition=right;points=[];portConstraint=eastwest;strokeColor=inherit;" parent="QS9NOTjVPdq4bi2XpLZB-106" vertex="1">
          <mxGeometry y="26" width="240" height="8" as="geometry" />
        </mxCell>
        <mxCell id="QS9NOTjVPdq4bi2XpLZB-109" value="&lt;div&gt;+ calculateTimeDifference(timeString1: String, timeString2: String): String&lt;/div&gt;&lt;div&gt;&lt;br&gt;&lt;/div&gt;&lt;div&gt;+ validateTimeInput(userTimeInput: String): boolean&lt;/div&gt;&lt;div&gt;&lt;br&gt;&lt;/div&gt;&lt;div&gt;+ validateDistanceInput(userDistanceInput: String): boolean&lt;/div&gt;&lt;div&gt;&lt;br&gt;&lt;/div&gt;&lt;div&gt;+ calculateMinutes(timeString: String): int&lt;/div&gt;&lt;div&gt;&lt;br&gt;&lt;/div&gt;&lt;div&gt;+ dateToyyymmddDash(date: Date): String&lt;/div&gt;&lt;div&gt;&lt;br&gt;&lt;/div&gt;&lt;div&gt;+ dateToddmmyyyySlash(date: Date): String&lt;br&gt;&lt;/div&gt;" style="text;strokeColor=none;fillColor=none;align=left;verticalAlign=top;spacingLeft=4;spacingRight=4;overflow=hidden;rotatable=0;points=[[0,0.5],[1,0.5]];portConstraint=eastwest;whiteSpace=wrap;html=1;" parent="QS9NOTjVPdq4bi2XpLZB-106" vertex="1">
          <mxGeometry y="34" width="240" height="236" as="geometry" />
        </mxCell>
        <mxCell id="ZjGV_vbm2PJWPnYQoxDB-26" value="" style="group" parent="1" vertex="1" connectable="0">
          <mxGeometry x="76" y="300" width="1165" height="540" as="geometry" />
        </mxCell>
        <mxCell id="ZjGV_vbm2PJWPnYQoxDB-18" value="MainProgram" style="shape=folder;fontStyle=1;spacingTop=10;tabWidth=40;tabHeight=14;tabPosition=left;html=1;whiteSpace=wrap;verticalAlign=top;align=left;fillColor=none;" parent="ZjGV_vbm2PJWPnYQoxDB-26" vertex="1">
          <mxGeometry width="1165" height="540" as="geometry" />
        </mxCell>
        <mxCell id="QS9NOTjVPdq4bi2XpLZB-41" value="Exercise" style="swimlane;fontStyle=1;align=center;verticalAlign=top;childLayout=stackLayout;horizontal=1;startSize=26;horizontalStack=0;resizeParent=1;resizeParentMax=0;resizeLast=0;collapsible=1;marginBottom=0;whiteSpace=wrap;html=1;fillColor=#f8cecc;strokeColor=#b85450;" parent="ZjGV_vbm2PJWPnYQoxDB-26" vertex="1">
          <mxGeometry x="245" y="40" width="250" height="300" as="geometry" />
        </mxCell>
        <mxCell id="QS9NOTjVPdq4bi2XpLZB-42" value="&lt;div&gt;- startTimeTextField: JTextField&lt;/div&gt;&lt;div&gt;- endTimeTextField: JTextField&lt;/div&gt;&lt;div&gt;- distanceTextField: JTextField&lt;/div&gt;&lt;div&gt;- type: String&lt;/div&gt;&lt;div&gt;- exerciseTime: String&lt;/div&gt;&lt;div&gt;- distance: String&lt;/div&gt;&lt;div&gt;- duration: int&lt;/div&gt;&lt;div&gt;- elevationGain: String&lt;/div&gt;&lt;div&gt;- datePicker: JDateChooser&lt;/div&gt;&lt;div&gt;- distanceDataSets: DataSet[]&lt;br&gt;&lt;/div&gt;" style="text;strokeColor=none;fillColor=none;align=left;verticalAlign=top;spacingLeft=4;spacingRight=4;overflow=hidden;rotatable=0;points=[[0,0.5],[1,0.5]];portConstraint=eastwest;whiteSpace=wrap;html=1;" parent="QS9NOTjVPdq4bi2XpLZB-41" vertex="1">
          <mxGeometry y="26" width="250" height="154" as="geometry" />
        </mxCell>
        <mxCell id="QS9NOTjVPdq4bi2XpLZB-43" value="" style="line;strokeWidth=1;fillColor=none;align=left;verticalAlign=middle;spacingTop=-1;spacingLeft=3;spacingRight=3;rotatable=0;labelPosition=right;points=[];portConstraint=eastwest;strokeColor=inherit;" parent="QS9NOTjVPdq4bi2XpLZB-41" vertex="1">
          <mxGeometry y="180" width="250" height="8" as="geometry" />
        </mxCell>
        <mxCell id="QS9NOTjVPdq4bi2XpLZB-44" value="&lt;div&gt;+ Exercise(mainPage: MainPage, mainframe: MainFrame): void&lt;/div&gt;&lt;div&gt;&lt;br&gt;&lt;/div&gt;&lt;div&gt;+ updateDateSets(datasets: DataSet[], type: String, date: Date, value: Double): void&lt;br&gt;&lt;/div&gt;&lt;div&gt;&lt;br&gt;&lt;/div&gt;&lt;div&gt;+ getDataSets(choice: String): DataSet[]&lt;br&gt;&lt;/div&gt;" style="text;strokeColor=none;fillColor=none;align=left;verticalAlign=top;spacingLeft=4;spacingRight=4;overflow=hidden;rotatable=0;points=[[0,0.5],[1,0.5]];portConstraint=eastwest;whiteSpace=wrap;html=1;" parent="QS9NOTjVPdq4bi2XpLZB-41" vertex="1">
          <mxGeometry y="188" width="250" height="112" as="geometry" />
        </mxCell>
        <mxCell id="QS9NOTjVPdq4bi2XpLZB-45" value="ExerciseStatistics" style="swimlane;fontStyle=1;align=center;verticalAlign=top;childLayout=stackLayout;horizontal=1;startSize=26;horizontalStack=0;resizeParent=1;resizeParentMax=0;resizeLast=0;collapsible=1;marginBottom=0;whiteSpace=wrap;html=1;fillColor=#f8cecc;strokeColor=#b85450;" parent="ZjGV_vbm2PJWPnYQoxDB-26" vertex="1">
          <mxGeometry x="510" y="375" width="200" height="120" as="geometry" />
        </mxCell>
        <mxCell id="QS9NOTjVPdq4bi2XpLZB-46" value="&lt;div&gt;- dataPoints: DataSet.DataPoint[]&lt;/div&gt;&lt;div&gt;- exerciseDistanceChart: TimeChart&lt;br&gt;&lt;/div&gt;" style="text;strokeColor=none;fillColor=none;align=left;verticalAlign=top;spacingLeft=4;spacingRight=4;overflow=hidden;rotatable=0;points=[[0,0.5],[1,0.5]];portConstraint=eastwest;whiteSpace=wrap;html=1;" parent="QS9NOTjVPdq4bi2XpLZB-45" vertex="1">
          <mxGeometry y="26" width="200" height="34" as="geometry" />
        </mxCell>
        <mxCell id="QS9NOTjVPdq4bi2XpLZB-47" value="" style="line;strokeWidth=1;fillColor=none;align=left;verticalAlign=middle;spacingTop=-1;spacingLeft=3;spacingRight=3;rotatable=0;labelPosition=right;points=[];portConstraint=eastwest;strokeColor=inherit;" parent="QS9NOTjVPdq4bi2XpLZB-45" vertex="1">
          <mxGeometry y="60" width="200" height="8" as="geometry" />
        </mxCell>
        <mxCell id="QS9NOTjVPdq4bi2XpLZB-48" value="+ ExerciseStatistics(mainPage: MainPage, mainFrame: MainFrame): void" style="text;strokeColor=none;fillColor=none;align=left;verticalAlign=top;spacingLeft=4;spacingRight=4;overflow=hidden;rotatable=0;points=[[0,0.5],[1,0.5]];portConstraint=eastwest;whiteSpace=wrap;html=1;" parent="QS9NOTjVPdq4bi2XpLZB-45" vertex="1">
          <mxGeometry y="68" width="200" height="52" as="geometry" />
        </mxCell>
        <mxCell id="QS9NOTjVPdq4bi2XpLZB-49" value="Food" style="swimlane;fontStyle=1;align=center;verticalAlign=top;childLayout=stackLayout;horizontal=1;startSize=26;horizontalStack=0;resizeParent=1;resizeParentMax=0;resizeLast=0;collapsible=1;marginBottom=0;whiteSpace=wrap;html=1;fillColor=#f8cecc;strokeColor=#b85450;" parent="ZjGV_vbm2PJWPnYQoxDB-26" vertex="1">
          <mxGeometry x="950" y="340" width="170" height="110" as="geometry" />
        </mxCell>
        <mxCell id="QS9NOTjVPdq4bi2XpLZB-50" value="- buttons: JButton = [0..4]" style="text;strokeColor=none;fillColor=none;align=left;verticalAlign=top;spacingLeft=4;spacingRight=4;overflow=hidden;rotatable=0;points=[[0,0.5],[1,0.5]];portConstraint=eastwest;whiteSpace=wrap;html=1;" parent="QS9NOTjVPdq4bi2XpLZB-49" vertex="1">
          <mxGeometry y="26" width="170" height="26" as="geometry" />
        </mxCell>
        <mxCell id="QS9NOTjVPdq4bi2XpLZB-51" value="" style="line;strokeWidth=1;fillColor=none;align=left;verticalAlign=middle;spacingTop=-1;spacingLeft=3;spacingRight=3;rotatable=0;labelPosition=right;points=[];portConstraint=eastwest;strokeColor=inherit;" parent="QS9NOTjVPdq4bi2XpLZB-49" vertex="1">
          <mxGeometry y="52" width="170" height="8" as="geometry" />
        </mxCell>
        <mxCell id="QS9NOTjVPdq4bi2XpLZB-52" value="+ Food(mainPage: MainPage, mainFrame: MainFrame): void" style="text;strokeColor=none;fillColor=none;align=left;verticalAlign=top;spacingLeft=4;spacingRight=4;overflow=hidden;rotatable=0;points=[[0,0.5],[1,0.5]];portConstraint=eastwest;whiteSpace=wrap;html=1;" parent="QS9NOTjVPdq4bi2XpLZB-49" vertex="1">
          <mxGeometry y="60" width="170" height="50" as="geometry" />
        </mxCell>
        <mxCell id="QS9NOTjVPdq4bi2XpLZB-53" value="Goals" style="swimlane;fontStyle=1;align=center;verticalAlign=top;childLayout=stackLayout;horizontal=1;startSize=26;horizontalStack=0;resizeParent=1;resizeParentMax=0;resizeLast=0;collapsible=1;marginBottom=0;whiteSpace=wrap;html=1;fillColor=#f8cecc;strokeColor=#b85450;" parent="ZjGV_vbm2PJWPnYQoxDB-26" vertex="1">
          <mxGeometry x="735" y="40" width="190" height="170" as="geometry" />
        </mxCell>
        <mxCell id="QS9NOTjVPdq4bi2XpLZB-54" value="&lt;div&gt;- datePicker: JDateChooser&lt;/div&gt;&lt;div&gt;- goalCount: int = 0&lt;/div&gt;&lt;div&gt;- addGoalButton: JButton&lt;br&gt;&lt;/div&gt;" style="text;strokeColor=none;fillColor=none;align=left;verticalAlign=top;spacingLeft=4;spacingRight=4;overflow=hidden;rotatable=0;points=[[0,0.5],[1,0.5]];portConstraint=eastwest;whiteSpace=wrap;html=1;" parent="QS9NOTjVPdq4bi2XpLZB-53" vertex="1">
          <mxGeometry y="26" width="190" height="54" as="geometry" />
        </mxCell>
        <mxCell id="QS9NOTjVPdq4bi2XpLZB-55" value="" style="line;strokeWidth=1;fillColor=none;align=left;verticalAlign=middle;spacingTop=-1;spacingLeft=3;spacingRight=3;rotatable=0;labelPosition=right;points=[];portConstraint=eastwest;strokeColor=inherit;" parent="QS9NOTjVPdq4bi2XpLZB-53" vertex="1">
          <mxGeometry y="80" width="190" height="8" as="geometry" />
        </mxCell>
        <mxCell id="QS9NOTjVPdq4bi2XpLZB-56" value="&lt;div&gt;+&amp;nbsp; Goals(mainPage: MainPage, mainFrame: MainFrame): Void&lt;/div&gt;&lt;div&gt;&lt;br&gt;&lt;/div&gt;&lt;div&gt;+ checkForOverdueGoals(goals: Goal[]): void&lt;br&gt;&lt;/div&gt;" style="text;strokeColor=none;fillColor=none;align=left;verticalAlign=top;spacingLeft=4;spacingRight=4;overflow=hidden;rotatable=0;points=[[0,0.5],[1,0.5]];portConstraint=eastwest;whiteSpace=wrap;html=1;" parent="QS9NOTjVPdq4bi2XpLZB-53" vertex="1">
          <mxGeometry y="88" width="190" height="82" as="geometry" />
        </mxCell>
        <mxCell id="QS9NOTjVPdq4bi2XpLZB-61" value="MainPage" style="swimlane;fontStyle=1;align=center;verticalAlign=top;childLayout=stackLayout;horizontal=1;startSize=26;horizontalStack=0;resizeParent=1;resizeParentMax=0;resizeLast=0;collapsible=1;marginBottom=0;whiteSpace=wrap;html=1;fillColor=#f8cecc;strokeColor=#b85450;" parent="ZjGV_vbm2PJWPnYQoxDB-26" vertex="1">
          <mxGeometry x="15" y="40" width="210" height="230" as="geometry" />
        </mxCell>
        <mxCell id="QS9NOTjVPdq4bi2XpLZB-62" value="&lt;div&gt;- exercisePanel: Exercise&lt;/div&gt;&lt;div&gt;- foodPanel: Food&lt;/div&gt;&lt;div&gt;- sleepPanel: Sleep&lt;/div&gt;&lt;div&gt;- menuPanel: Menu&lt;/div&gt;&lt;div&gt;- startPage: StartPage&lt;/div&gt;&lt;div&gt;- weightPanel: Weight&lt;/div&gt;&lt;div&gt;- goalsPanel: Goals&lt;/div&gt;&lt;div&gt;- stepsPanel: Steps&lt;/div&gt;&lt;div&gt;- exerciseStatistics: ExerciseStatistics&lt;br&gt;&lt;/div&gt;" style="text;strokeColor=none;fillColor=none;align=left;verticalAlign=top;spacingLeft=4;spacingRight=4;overflow=hidden;rotatable=0;points=[[0,0.5],[1,0.5]];portConstraint=eastwest;whiteSpace=wrap;html=1;" parent="QS9NOTjVPdq4bi2XpLZB-61" vertex="1">
          <mxGeometry y="26" width="210" height="154" as="geometry" />
        </mxCell>
        <mxCell id="QS9NOTjVPdq4bi2XpLZB-63" value="" style="line;strokeWidth=1;fillColor=none;align=left;verticalAlign=middle;spacingTop=-1;spacingLeft=3;spacingRight=3;rotatable=0;labelPosition=right;points=[];portConstraint=eastwest;strokeColor=inherit;" parent="QS9NOTjVPdq4bi2XpLZB-61" vertex="1">
          <mxGeometry y="180" width="210" height="8" as="geometry" />
        </mxCell>
        <mxCell id="QS9NOTjVPdq4bi2XpLZB-64" value="+ MainPage(mainFrame: MainFrame): void" style="text;strokeColor=none;fillColor=none;align=left;verticalAlign=top;spacingLeft=4;spacingRight=4;overflow=hidden;rotatable=0;points=[[0,0.5],[1,0.5]];portConstraint=eastwest;whiteSpace=wrap;html=1;" parent="QS9NOTjVPdq4bi2XpLZB-61" vertex="1">
          <mxGeometry y="188" width="210" height="42" as="geometry" />
        </mxCell>
        <mxCell id="QS9NOTjVPdq4bi2XpLZB-72" value="Menu" style="swimlane;fontStyle=1;align=center;verticalAlign=top;childLayout=stackLayout;horizontal=1;startSize=26;horizontalStack=0;resizeParent=1;resizeParentMax=0;resizeLast=0;collapsible=1;marginBottom=0;whiteSpace=wrap;html=1;fillColor=#f8cecc;strokeColor=#b85450;" parent="ZjGV_vbm2PJWPnYQoxDB-26" vertex="1">
          <mxGeometry x="15" y="390" width="170" height="90" as="geometry" />
        </mxCell>
        <mxCell id="QS9NOTjVPdq4bi2XpLZB-74" value="" style="line;strokeWidth=1;fillColor=none;align=left;verticalAlign=middle;spacingTop=-1;spacingLeft=3;spacingRight=3;rotatable=0;labelPosition=right;points=[];portConstraint=eastwest;strokeColor=inherit;" parent="QS9NOTjVPdq4bi2XpLZB-72" vertex="1">
          <mxGeometry y="26" width="170" height="8" as="geometry" />
        </mxCell>
        <mxCell id="QS9NOTjVPdq4bi2XpLZB-75" value="+ Menu(mainPage: MainPage, mainFrame: MainFrame): void" style="text;strokeColor=none;fillColor=none;align=left;verticalAlign=top;spacingLeft=4;spacingRight=4;overflow=hidden;rotatable=0;points=[[0,0.5],[1,0.5]];portConstraint=eastwest;whiteSpace=wrap;html=1;" parent="QS9NOTjVPdq4bi2XpLZB-72" vertex="1">
          <mxGeometry y="34" width="170" height="56" as="geometry" />
        </mxCell>
        <mxCell id="QS9NOTjVPdq4bi2XpLZB-76" value="Sleep" style="swimlane;fontStyle=1;align=center;verticalAlign=top;childLayout=stackLayout;horizontal=1;startSize=26;horizontalStack=0;resizeParent=1;resizeParentMax=0;resizeLast=0;collapsible=1;marginBottom=0;whiteSpace=wrap;html=1;fillColor=#f8cecc;strokeColor=#b85450;" parent="ZjGV_vbm2PJWPnYQoxDB-26" vertex="1">
          <mxGeometry x="515" y="40" width="190" height="160" as="geometry" />
        </mxCell>
        <mxCell id="QS9NOTjVPdq4bi2XpLZB-77" value="&lt;div&gt;- sleepTimeTextField: JTextField&lt;/div&gt;&lt;div&gt;- wakeUpTextField: JTextField&lt;/div&gt;&lt;div&gt;- datePicker: JDateChooser&lt;/div&gt;&lt;div&gt;- sleepChart: TimeChart&lt;/div&gt;&lt;div&gt;- dataPoints: Dataset.DataPoint[]&lt;br&gt;&lt;/div&gt;" style="text;strokeColor=none;fillColor=none;align=left;verticalAlign=top;spacingLeft=4;spacingRight=4;overflow=hidden;rotatable=0;points=[[0,0.5],[1,0.5]];portConstraint=eastwest;whiteSpace=wrap;html=1;" parent="QS9NOTjVPdq4bi2XpLZB-76" vertex="1">
          <mxGeometry y="26" width="190" height="84" as="geometry" />
        </mxCell>
        <mxCell id="QS9NOTjVPdq4bi2XpLZB-78" value="" style="line;strokeWidth=1;fillColor=none;align=left;verticalAlign=middle;spacingTop=-1;spacingLeft=3;spacingRight=3;rotatable=0;labelPosition=right;points=[];portConstraint=eastwest;strokeColor=inherit;" parent="QS9NOTjVPdq4bi2XpLZB-76" vertex="1">
          <mxGeometry y="110" width="190" height="8" as="geometry" />
        </mxCell>
        <mxCell id="QS9NOTjVPdq4bi2XpLZB-79" value="+ Sleep(mainPage: MainPage, mainFrame: MainFrame): void" style="text;strokeColor=none;fillColor=none;align=left;verticalAlign=top;spacingLeft=4;spacingRight=4;overflow=hidden;rotatable=0;points=[[0,0.5],[1,0.5]];portConstraint=eastwest;whiteSpace=wrap;html=1;" parent="QS9NOTjVPdq4bi2XpLZB-76" vertex="1">
          <mxGeometry y="118" width="190" height="42" as="geometry" />
        </mxCell>
        <mxCell id="QS9NOTjVPdq4bi2XpLZB-80" value="Steps" style="swimlane;fontStyle=1;align=center;verticalAlign=top;childLayout=stackLayout;horizontal=1;startSize=26;horizontalStack=0;resizeParent=1;resizeParentMax=0;resizeLast=0;collapsible=1;marginBottom=0;whiteSpace=wrap;html=1;fillColor=#f8cecc;strokeColor=#b85450;" parent="ZjGV_vbm2PJWPnYQoxDB-26" vertex="1">
          <mxGeometry x="264" y="360" width="190" height="150" as="geometry" />
        </mxCell>
        <mxCell id="QS9NOTjVPdq4bi2XpLZB-81" value="&lt;div&gt;- stepsTextField: JTextField&lt;/div&gt;&lt;div&gt;- datePicker: JDateChooser&lt;/div&gt;&lt;div&gt;- stepsChart: TimeChart&lt;/div&gt;&lt;div&gt;- dataPoints: Dataset.DataPoint[]&lt;br&gt;&lt;/div&gt;" style="text;strokeColor=none;fillColor=none;align=left;verticalAlign=top;spacingLeft=4;spacingRight=4;overflow=hidden;rotatable=0;points=[[0,0.5],[1,0.5]];portConstraint=eastwest;whiteSpace=wrap;html=1;" parent="QS9NOTjVPdq4bi2XpLZB-80" vertex="1">
          <mxGeometry y="26" width="190" height="74" as="geometry" />
        </mxCell>
        <mxCell id="QS9NOTjVPdq4bi2XpLZB-82" value="" style="line;strokeWidth=1;fillColor=none;align=left;verticalAlign=middle;spacingTop=-1;spacingLeft=3;spacingRight=3;rotatable=0;labelPosition=right;points=[];portConstraint=eastwest;strokeColor=inherit;" parent="QS9NOTjVPdq4bi2XpLZB-80" vertex="1">
          <mxGeometry y="100" width="190" height="8" as="geometry" />
        </mxCell>
        <mxCell id="QS9NOTjVPdq4bi2XpLZB-83" value="+ Steps(mainPage: MainPage, mainFrame: MainFrame): void" style="text;strokeColor=none;fillColor=none;align=left;verticalAlign=top;spacingLeft=4;spacingRight=4;overflow=hidden;rotatable=0;points=[[0,0.5],[1,0.5]];portConstraint=eastwest;whiteSpace=wrap;html=1;" parent="QS9NOTjVPdq4bi2XpLZB-80" vertex="1">
          <mxGeometry y="108" width="190" height="42" as="geometry" />
        </mxCell>
        <mxCell id="QS9NOTjVPdq4bi2XpLZB-84" value="Subpage" style="swimlane;fontStyle=1;align=center;verticalAlign=top;childLayout=stackLayout;horizontal=1;startSize=26;horizontalStack=0;resizeParent=1;resizeParentMax=0;resizeLast=0;collapsible=1;marginBottom=0;whiteSpace=wrap;html=1;fillColor=#f8cecc;strokeColor=#b85450;" parent="ZjGV_vbm2PJWPnYQoxDB-26" vertex="1">
          <mxGeometry x="15" y="280" width="160" height="94" as="geometry" />
        </mxCell>
        <mxCell id="QS9NOTjVPdq4bi2XpLZB-85" value="&lt;div&gt;- backButton: JButton&lt;/div&gt;&lt;div&gt;- mainPanel: JPanel&lt;br&gt;&lt;/div&gt;" style="text;strokeColor=none;fillColor=none;align=left;verticalAlign=top;spacingLeft=4;spacingRight=4;overflow=hidden;rotatable=0;points=[[0,0.5],[1,0.5]];portConstraint=eastwest;whiteSpace=wrap;html=1;" parent="QS9NOTjVPdq4bi2XpLZB-84" vertex="1">
          <mxGeometry y="26" width="160" height="34" as="geometry" />
        </mxCell>
        <mxCell id="QS9NOTjVPdq4bi2XpLZB-86" value="" style="line;strokeWidth=1;fillColor=none;align=left;verticalAlign=middle;spacingTop=-1;spacingLeft=3;spacingRight=3;rotatable=0;labelPosition=right;points=[];portConstraint=eastwest;strokeColor=inherit;" parent="QS9NOTjVPdq4bi2XpLZB-84" vertex="1">
          <mxGeometry y="60" width="160" height="8" as="geometry" />
        </mxCell>
        <mxCell id="QS9NOTjVPdq4bi2XpLZB-87" value="+ Subpage(): void" style="text;strokeColor=none;fillColor=none;align=left;verticalAlign=top;spacingLeft=4;spacingRight=4;overflow=hidden;rotatable=0;points=[[0,0.5],[1,0.5]];portConstraint=eastwest;whiteSpace=wrap;html=1;" parent="QS9NOTjVPdq4bi2XpLZB-84" vertex="1">
          <mxGeometry y="68" width="160" height="26" as="geometry" />
        </mxCell>
        <mxCell id="QS9NOTjVPdq4bi2XpLZB-92" value="Weight" style="swimlane;fontStyle=1;align=center;verticalAlign=top;childLayout=stackLayout;horizontal=1;startSize=26;horizontalStack=0;resizeParent=1;resizeParentMax=0;resizeLast=0;collapsible=1;marginBottom=0;whiteSpace=wrap;html=1;fillColor=#f8cecc;strokeColor=#b85450;" parent="ZjGV_vbm2PJWPnYQoxDB-26" vertex="1">
          <mxGeometry x="515" y="220" width="190" height="140" as="geometry" />
        </mxCell>
        <mxCell id="QS9NOTjVPdq4bi2XpLZB-93" value="&lt;div&gt;- weightTextField: JTextField&lt;/div&gt;&lt;div&gt;- datePicker: JDateChooser&lt;/div&gt;&lt;div&gt;- weightChart: TimeChart&lt;/div&gt;&lt;div&gt;- dataPoints: Dataset.DataPoints[]&lt;br&gt;&lt;/div&gt;" style="text;strokeColor=none;fillColor=none;align=left;verticalAlign=top;spacingLeft=4;spacingRight=4;overflow=hidden;rotatable=0;points=[[0,0.5],[1,0.5]];portConstraint=eastwest;whiteSpace=wrap;html=1;" parent="QS9NOTjVPdq4bi2XpLZB-92" vertex="1">
          <mxGeometry y="26" width="190" height="64" as="geometry" />
        </mxCell>
        <mxCell id="QS9NOTjVPdq4bi2XpLZB-94" value="" style="line;strokeWidth=1;fillColor=none;align=left;verticalAlign=middle;spacingTop=-1;spacingLeft=3;spacingRight=3;rotatable=0;labelPosition=right;points=[];portConstraint=eastwest;strokeColor=inherit;" parent="QS9NOTjVPdq4bi2XpLZB-92" vertex="1">
          <mxGeometry y="90" width="190" height="8" as="geometry" />
        </mxCell>
        <mxCell id="QS9NOTjVPdq4bi2XpLZB-95" value="+ Weight(mainPage: MainPage, mainFrame: MainFrame): void" style="text;strokeColor=none;fillColor=none;align=left;verticalAlign=top;spacingLeft=4;spacingRight=4;overflow=hidden;rotatable=0;points=[[0,0.5],[1,0.5]];portConstraint=eastwest;whiteSpace=wrap;html=1;" parent="QS9NOTjVPdq4bi2XpLZB-92" vertex="1">
          <mxGeometry y="98" width="190" height="42" as="geometry" />
        </mxCell>
        <mxCell id="QS9NOTjVPdq4bi2XpLZB-96" value="" style="endArrow=open;startArrow=circlePlus;endFill=0;startFill=0;endSize=8;html=1;rounded=0;exitX=0.5;exitY=0;exitDx=0;exitDy=0;entryX=0.479;entryY=0.976;entryDx=0;entryDy=0;entryPerimeter=0;" parent="ZjGV_vbm2PJWPnYQoxDB-26" source="QS9NOTjVPdq4bi2XpLZB-57" target="QS9NOTjVPdq4bi2XpLZB-56" edge="1">
          <mxGeometry width="160" relative="1" as="geometry">
            <mxPoint x="250" y="-460" as="sourcePoint" />
            <mxPoint x="410" y="-460" as="targetPoint" />
          </mxGeometry>
        </mxCell>
        <mxCell id="QS9NOTjVPdq4bi2XpLZB-57" value="Goal" style="swimlane;fontStyle=1;align=center;verticalAlign=top;childLayout=stackLayout;horizontal=1;startSize=26;horizontalStack=0;resizeParent=1;resizeParentMax=0;resizeLast=0;collapsible=1;marginBottom=0;whiteSpace=wrap;html=1;fillColor=#f8cecc;strokeColor=#b85450;" parent="ZjGV_vbm2PJWPnYQoxDB-26" vertex="1">
          <mxGeometry x="735" y="240" width="180" height="270" as="geometry" />
        </mxCell>
        <mxCell id="QS9NOTjVPdq4bi2XpLZB-58" value="&lt;div&gt;- goalDescription: String&lt;/div&gt;&lt;div&gt;- goalDescriptionBox: JTextArea&lt;/div&gt;&lt;div&gt;- dueDate: Date&lt;/div&gt;&lt;div&gt;- isCompleted: boolean&lt;/div&gt;&lt;div&gt;- isOverdue: boolean&lt;/div&gt;&lt;div&gt;- goalPanel: JPanel&lt;br&gt;&lt;/div&gt;" style="text;strokeColor=none;fillColor=none;align=left;verticalAlign=top;spacingLeft=4;spacingRight=4;overflow=hidden;rotatable=0;points=[[0,0.5],[1,0.5]];portConstraint=eastwest;whiteSpace=wrap;html=1;" parent="QS9NOTjVPdq4bi2XpLZB-57" vertex="1">
          <mxGeometry y="26" width="180" height="104" as="geometry" />
        </mxCell>
        <mxCell id="QS9NOTjVPdq4bi2XpLZB-59" value="" style="line;strokeWidth=1;fillColor=none;align=left;verticalAlign=middle;spacingTop=-1;spacingLeft=3;spacingRight=3;rotatable=0;labelPosition=right;points=[];portConstraint=eastwest;strokeColor=inherit;" parent="QS9NOTjVPdq4bi2XpLZB-57" vertex="1">
          <mxGeometry y="130" width="180" height="8" as="geometry" />
        </mxCell>
        <mxCell id="QS9NOTjVPdq4bi2XpLZB-60" value="&lt;div&gt;+ Goal(): void&lt;br&gt;&lt;/div&gt;&lt;div&gt;+ updateDueDate(dateButton: JButton, dueDate: Date)&lt;/div&gt;&lt;div&gt;&lt;br&gt;&lt;/div&gt;&lt;div&gt;+ getDueDate(): Date&lt;/div&gt;&lt;div&gt;+ getGoalDescription(): String&lt;/div&gt;&lt;div&gt;+ getIsCompleted(): boolean&lt;/div&gt;&lt;div&gt;+ makeOverDue(): void&lt;br&gt;&lt;/div&gt;" style="text;strokeColor=none;fillColor=none;align=left;verticalAlign=top;spacingLeft=4;spacingRight=4;overflow=hidden;rotatable=0;points=[[0,0.5],[1,0.5]];portConstraint=eastwest;whiteSpace=wrap;html=1;" parent="QS9NOTjVPdq4bi2XpLZB-57" vertex="1">
          <mxGeometry y="138" width="180" height="132" as="geometry" />
        </mxCell>
        <mxCell id="QS9NOTjVPdq4bi2XpLZB-88" value="TimeChart" style="swimlane;fontStyle=1;align=center;verticalAlign=top;childLayout=stackLayout;horizontal=1;startSize=26;horizontalStack=0;resizeParent=1;resizeParentMax=0;resizeLast=0;collapsible=1;marginBottom=0;whiteSpace=wrap;html=1;fillColor=#f8cecc;strokeColor=#b85450;" parent="ZjGV_vbm2PJWPnYQoxDB-26" vertex="1">
          <mxGeometry x="950" y="40" width="200" height="240" as="geometry" />
        </mxCell>
        <mxCell id="QS9NOTjVPdq4bi2XpLZB-89" value="- serialVersionUID: long = 1L" style="text;strokeColor=none;fillColor=none;align=left;verticalAlign=top;spacingLeft=4;spacingRight=4;overflow=hidden;rotatable=0;points=[[0,0.5],[1,0.5]];portConstraint=eastwest;whiteSpace=wrap;html=1;" parent="QS9NOTjVPdq4bi2XpLZB-88" vertex="1">
          <mxGeometry y="26" width="200" height="26" as="geometry" />
        </mxCell>
        <mxCell id="QS9NOTjVPdq4bi2XpLZB-90" value="" style="line;strokeWidth=1;fillColor=none;align=left;verticalAlign=middle;spacingTop=-1;spacingLeft=3;spacingRight=3;rotatable=0;labelPosition=right;points=[];portConstraint=eastwest;strokeColor=inherit;" parent="QS9NOTjVPdq4bi2XpLZB-88" vertex="1">
          <mxGeometry y="52" width="200" height="8" as="geometry" />
        </mxCell>
        <mxCell id="QS9NOTjVPdq4bi2XpLZB-91" value="&lt;div&gt;+ TimeChart(dataSets: DataSet[], title: String, xAxisLabel: String, yAxisLabel: String, scaleIncrement: int): void&lt;/div&gt;&lt;div&gt;&lt;br&gt;&lt;/div&gt;&lt;div&gt;+ createDataSet(dataSetsIn: DataSet[]): DefaultCategoryDataset&lt;/div&gt;&lt;div&gt;&lt;br&gt;&lt;/div&gt;&lt;div&gt;+ getRangeBounds(dataPoints: DataSet.DataPoint[], max: boolean): double&lt;br&gt;&lt;/div&gt;" style="text;strokeColor=none;fillColor=none;align=left;verticalAlign=top;spacingLeft=4;spacingRight=4;overflow=hidden;rotatable=0;points=[[0,0.5],[1,0.5]];portConstraint=eastwest;whiteSpace=wrap;html=1;" parent="QS9NOTjVPdq4bi2XpLZB-88" vertex="1">
          <mxGeometry y="60" width="200" height="180" as="geometry" />
        </mxCell>
        <mxCell id="_7ttm9PZT_IRjVwK9S3N-8" value="" style="strokeWidth=2;html=1;shape=mxgraph.flowchart.annotation_2;align=left;labelPosition=right;pointerEvents=1;" vertex="1" parent="ZjGV_vbm2PJWPnYQoxDB-26">
          <mxGeometry x="225" y="30" width="31" height="505" as="geometry" />
        </mxCell>
        <mxCell id="_7ttm9PZT_IRjVwK9S3N-11" value="" style="endArrow=none;html=1;rounded=0;" edge="1" parent="ZjGV_vbm2PJWPnYQoxDB-26">
          <mxGeometry width="50" height="50" relative="1" as="geometry">
            <mxPoint x="940" y="305" as="sourcePoint" />
            <mxPoint x="940" y="15" as="targetPoint" />
          </mxGeometry>
        </mxCell>
        <mxCell id="_7ttm9PZT_IRjVwK9S3N-12" value="" style="endArrow=none;html=1;rounded=0;" edge="1" parent="ZjGV_vbm2PJWPnYQoxDB-26">
          <mxGeometry width="50" height="50" relative="1" as="geometry">
            <mxPoint x="940" y="310" as="sourcePoint" />
            <mxPoint x="1020" y="310" as="targetPoint" />
          </mxGeometry>
        </mxCell>
        <mxCell id="_7ttm9PZT_IRjVwK9S3N-13" value="" style="endArrow=none;html=1;rounded=0;entryX=1.003;entryY=0.574;entryDx=0;entryDy=0;entryPerimeter=0;" edge="1" parent="ZjGV_vbm2PJWPnYQoxDB-26" target="ZjGV_vbm2PJWPnYQoxDB-18">
          <mxGeometry width="50" height="50" relative="1" as="geometry">
            <mxPoint x="940" y="310" as="sourcePoint" />
            <mxPoint x="1020" y="310" as="targetPoint" />
          </mxGeometry>
        </mxCell>
        <mxCell id="_7ttm9PZT_IRjVwK9S3N-24" value="" style="endArrow=open;endFill=1;endSize=12;html=1;rounded=0;exitX=0;exitY=0.5;exitDx=0;exitDy=0;exitPerimeter=0;entryX=1;entryY=0.5;entryDx=0;entryDy=0;" edge="1" parent="ZjGV_vbm2PJWPnYQoxDB-26" source="_7ttm9PZT_IRjVwK9S3N-8" target="QS9NOTjVPdq4bi2XpLZB-85">
          <mxGeometry width="160" relative="1" as="geometry">
            <mxPoint x="94" y="660" as="sourcePoint" />
            <mxPoint x="254" y="660" as="targetPoint" />
            <Array as="points">
              <mxPoint x="225" y="323" />
            </Array>
          </mxGeometry>
        </mxCell>
        <mxCell id="_7ttm9PZT_IRjVwK9S3N-15" value="" style="endArrow=open;endFill=1;endSize=12;html=1;rounded=0;exitX=0.5;exitY=0;exitDx=0;exitDy=0;entryX=0.5;entryY=1;entryDx=0;entryDy=0;" edge="1" parent="1" source="QS9NOTjVPdq4bi2XpLZB-11" target="ZjGV_vbm2PJWPnYQoxDB-3">
          <mxGeometry width="160" relative="1" as="geometry">
            <mxPoint x="740" y="370" as="sourcePoint" />
            <mxPoint x="310" y="70" as="targetPoint" />
            <Array as="points">
              <mxPoint x="350" y="60" />
              <mxPoint x="285" y="60" />
            </Array>
          </mxGeometry>
        </mxCell>
        <mxCell id="_7ttm9PZT_IRjVwK9S3N-16" value="" style="endArrow=open;endFill=1;endSize=12;html=1;rounded=0;exitX=0.5;exitY=0;exitDx=0;exitDy=0;entryX=0.5;entryY=1;entryDx=0;entryDy=0;" edge="1" parent="1" source="QS9NOTjVPdq4bi2XpLZB-15" target="ZjGV_vbm2PJWPnYQoxDB-3">
          <mxGeometry width="160" relative="1" as="geometry">
            <mxPoint x="500" y="-20" as="sourcePoint" />
            <mxPoint x="660" y="-20" as="targetPoint" />
            <Array as="points">
              <mxPoint x="560" y="50" />
              <mxPoint x="285" y="50" />
            </Array>
          </mxGeometry>
        </mxCell>
        <mxCell id="_7ttm9PZT_IRjVwK9S3N-18" value="" style="endArrow=open;endFill=1;endSize=12;html=1;rounded=0;exitX=0;exitY=0.5;exitDx=0;exitDy=0;entryX=1;entryY=0.5;entryDx=0;entryDy=0;" edge="1" parent="1" source="QS9NOTjVPdq4bi2XpLZB-85" target="ZjGV_vbm2PJWPnYQoxDB-3">
          <mxGeometry width="160" relative="1" as="geometry">
            <mxPoint x="130" y="920" as="sourcePoint" />
            <mxPoint x="290" y="920" as="targetPoint" />
            <Array as="points">
              <mxPoint x="40" y="623" />
              <mxPoint x="40" y="280" />
              <mxPoint x="700" y="280" />
              <mxPoint x="700" y="-20" />
            </Array>
          </mxGeometry>
        </mxCell>
        <mxCell id="_7ttm9PZT_IRjVwK9S3N-19" value="" style="endArrow=open;endFill=1;endSize=12;html=1;rounded=0;exitX=0.5;exitY=0;exitDx=0;exitDy=0;" edge="1" parent="1" source="QS9NOTjVPdq4bi2XpLZB-61">
          <mxGeometry width="160" relative="1" as="geometry">
            <mxPoint x="420" y="270" as="sourcePoint" />
            <mxPoint x="557" y="220" as="targetPoint" />
            <Array as="points">
              <mxPoint x="196" y="290" />
              <mxPoint x="557" y="290" />
            </Array>
          </mxGeometry>
        </mxCell>
        <mxCell id="_7ttm9PZT_IRjVwK9S3N-22" value="" style="endArrow=open;endFill=1;endSize=12;html=1;rounded=0;exitX=0;exitY=0.5;exitDx=0;exitDy=0;entryX=1;entryY=0.5;entryDx=0;entryDy=0;" edge="1" parent="1" source="QS9NOTjVPdq4bi2XpLZB-75" target="ZjGV_vbm2PJWPnYQoxDB-3">
          <mxGeometry width="160" relative="1" as="geometry">
            <mxPoint x="120" y="900" as="sourcePoint" />
            <mxPoint x="280" y="900" as="targetPoint" />
            <Array as="points">
              <mxPoint x="40" y="752" />
              <mxPoint x="40" y="280" />
              <mxPoint x="700" y="280" />
              <mxPoint x="700" y="-20" />
            </Array>
          </mxGeometry>
        </mxCell>
        <mxCell id="_7ttm9PZT_IRjVwK9S3N-25" value="" style="endArrow=open;endFill=1;endSize=12;html=1;rounded=0;exitX=0.5;exitY=0;exitDx=0;exitDy=0;entryX=1;entryY=0.5;entryDx=0;entryDy=0;" edge="1" parent="1" source="QS9NOTjVPdq4bi2XpLZB-88" target="ZjGV_vbm2PJWPnYQoxDB-3">
          <mxGeometry width="160" relative="1" as="geometry">
            <mxPoint x="1040" y="200" as="sourcePoint" />
            <mxPoint x="1200" y="200" as="targetPoint" />
            <Array as="points">
              <mxPoint x="1126" y="280" />
              <mxPoint x="700" y="280" />
              <mxPoint x="700" y="-20" />
            </Array>
          </mxGeometry>
        </mxCell>
        <mxCell id="_7ttm9PZT_IRjVwK9S3N-28" value="" style="endArrow=open;endFill=1;endSize=12;html=1;rounded=0;exitX=0;exitY=0.5;exitDx=0;exitDy=0;exitPerimeter=0;entryX=0;entryY=0;entryDx=40;entryDy=0;entryPerimeter=0;" edge="1" parent="1" source="_7ttm9PZT_IRjVwK9S3N-8" target="ZjGV_vbm2PJWPnYQoxDB-14">
          <mxGeometry width="160" relative="1" as="geometry">
            <mxPoint x="980" y="900" as="sourcePoint" />
            <mxPoint x="1140" y="900" as="targetPoint" />
            <Array as="points">
              <mxPoint x="300" y="870" />
            </Array>
          </mxGeometry>
        </mxCell>
      </root>
    </mxGraphModel>
  </diagram>
</mxfile>
